<?xml version="1.0" encoding="UTF-8" standalone="no"?>
<svg xmlns="http://www.w3.org/2000/svg" viewBox="5 0 200 200" width="200" height="200" version="1.1">
    <g
       id="g883"
       transform="matrix(27,0,0,28,-745.60819,-1933.5167)">
      <g
         id="g907"
         transform="matrix(1.1815145,0,0,1.1815145,-5.4881952,-12.725757)"
         style="fill:#ffffff">
        <path
           style="fill:#ffffff;fill-opacity:1;stroke-width:0.26458332"
           id="path839"
           d="m 29.836213,69.732064 c -0.0649,1.36 -0.212407,3.12571 -0.357948,3.812337 0,0 1.931965,-0.413624 2.799419,0.06105 l -0.41776,0.649474 v 0 h -0.06682 c -3.307232,0.09154 -3.208681,0.593264 -3.169272,0.122048 0.135673,-1.397407 0.344486,-2.666966 0.323427,-4.205537 l 0.889114,-0.439187 z" />
        <path
           style="fill:#ffffff;fill-opacity:1;stroke-width:0.26458332"
           id="path839-0"
           d="m 29.493273,71.620571 c 0,0 1.272983,-0.334157 2.198902,-0.06827 l -0.360137,0.695289 c -1.683672,-0.216522 -2.18852,0.268479 -2.158659,0.0051 0.291372,-0.484188 0.01388,0.04806 0.319894,-0.632119 z" />
        <path
           style="fill:#ffffff;fill-opacity:1;stroke-width:0.31354374"
           id="path839-0-1"
           d="m 29.836373,69.732249 c 0,0 1.661598,-0.263286 2.9619,0.0026 l -0.379654,0.624418 c -2.364443,-0.216522 -3.07342,0.268479 -3.031485,0.0051 0.409185,-0.484188 0.01949,0.04806 0.449239,-0.63212 z" />
        <ellipse
           style="fill:#ffffff;fill-opacity:1;stroke-width:0.17656095"
           id="path875"
           cx="33.568661"
           cy="72.035736"
           rx="0.63538551"
           ry="0.62423837" />
      </g>
    </g>
</svg>
